<mxfile host="65bd71144e">
    <diagram name="Anaysis-Goals" id="97916047-d0de-89f5-080d-49f4d83e522f">
        <mxGraphModel dx="1838" dy="944" grid="1" gridSize="10" guides="1" tooltips="1" connect="1" arrows="1" fold="1" page="1" pageScale="1.5" pageWidth="1169" pageHeight="827" background="none" math="0" shadow="0">
            <root>
                <mxCell id="0"/>
                <mxCell id="1" parent="0"/>
                <mxCell id="274" value="General" style="rounded=1;whiteSpace=wrap;html=1;verticalAlign=bottom;align=center;" parent="1" vertex="1">
                    <mxGeometry x="810" y="321" width="260" height="429" as="geometry"/>
                </mxCell>
                <mxCell id="275" value="Specific" style="rounded=1;whiteSpace=wrap;html=1;verticalAlign=bottom;" parent="1" vertex="1">
                    <mxGeometry x="1090" y="321" width="260" height="429" as="geometry"/>
                </mxCell>
                <mxCell id="WlSLyMddTxWrjb-d0O-I-55" value="&lt;span style=&quot;color: rgb(0, 0, 0);&quot;&gt;Git Repository Contribution Analysis: Effects of Pull Request Reviews on Code Quality&lt;/span&gt;" style="rounded=1;whiteSpace=wrap;html=1;align=left;perimeterSpacing=3;strokeWidth=1;spacingLeft=0;spacingBottom=0;spacingTop=0;spacingRight=0;spacing=5;fillColor=#f8cecc;strokeColor=#b85450;" parent="1" vertex="1">
                    <mxGeometry x="810" y="850" width="540" height="40" as="geometry"/>
                </mxCell>
                <mxCell id="WlSLyMddTxWrjb-d0O-I-62" value="How can code quality be integrated into OCELs?" style="rounded=1;whiteSpace=wrap;html=1;align=left;perimeterSpacing=3;strokeWidth=1;spacingLeft=0;spacingBottom=0;spacingTop=0;spacingRight=0;spacing=5;fillColor=#f8cecc;strokeColor=#b85450;" parent="1" vertex="1">
                    <mxGeometry x="820" y="90" width="120" height="80" as="geometry"/>
                </mxCell>
                <mxCell id="WlSLyMddTxWrjb-d0O-I-98" value="How does code quality evolve in OSS repositories?" style="rounded=1;whiteSpace=wrap;html=1;align=left;perimeterSpacing=3;strokeWidth=1;spacingLeft=0;spacingBottom=0;spacingTop=0;spacingRight=0;spacing=5;fillColor=#f8cecc;strokeColor=#b85450;" parent="1" vertex="1">
                    <mxGeometry x="1020" y="90" width="120" height="80" as="geometry"/>
                </mxCell>
                <mxCell id="WlSLyMddTxWrjb-d0O-I-112" value="What can developers learn from discovered process models?" style="rounded=1;whiteSpace=wrap;html=1;align=left;perimeterSpacing=3;strokeWidth=1;spacingLeft=0;spacingBottom=0;spacingTop=0;spacingRight=0;spacing=5;fillColor=#f8cecc;strokeColor=#b85450;" parent="1" vertex="1">
                    <mxGeometry x="1220" y="90" width="120" height="80" as="geometry"/>
                </mxCell>
                <mxCell id="WlSLyMddTxWrjb-d0O-I-130" value="What aspects of code quality can hardly be captured by code quality metrics?" style="rounded=1;whiteSpace=wrap;html=1;align=left;perimeterSpacing=3;strokeWidth=1;spacingLeft=0;spacingBottom=0;spacingTop=0;spacingRight=0;spacing=5;fontSize=4;fillColor=#bac8d3;strokeColor=#23445d;" parent="1" vertex="1">
                    <mxGeometry x="1380" y="180" width="40" height="50" as="geometry"/>
                </mxCell>
                <mxCell id="WlSLyMddTxWrjb-d0O-I-169" value="What is difference between tradtional and object-centric process mining" style="rounded=1;whiteSpace=wrap;html=1;align=left;perimeterSpacing=3;strokeWidth=1;spacingLeft=0;spacingBottom=0;spacingTop=0;spacingRight=0;spacing=5;fontSize=4;fillColor=#f5f5f5;fontColor=#333333;strokeColor=#666666;" parent="1" vertex="1">
                    <mxGeometry x="20" y="180" width="40" height="50" as="geometry"/>
                </mxCell>
                <mxCell id="M1kuKOY4G_Xc1Gv_RkIK-1" value="Introduction" style="rounded=1;whiteSpace=wrap;html=1;align=left;perimeterSpacing=3;strokeWidth=1;spacingLeft=0;spacingBottom=0;spacingTop=0;spacingRight=0;spacing=5;fillColor=#f5f5f5;fontColor=#333333;strokeColor=#666666;" parent="1" vertex="1">
                    <mxGeometry x="160" y="10" width="80" height="40" as="geometry"/>
                </mxCell>
                <mxCell id="M1kuKOY4G_Xc1Gv_RkIK-2" value="Motivation" style="rounded=1;whiteSpace=wrap;html=1;align=left;perimeterSpacing=3;strokeWidth=1;spacingLeft=0;spacingBottom=0;spacingTop=0;spacingRight=0;spacing=5;fillColor=#dae8fc;strokeColor=#6c8ebf;" parent="1" vertex="1">
                    <mxGeometry x="560" y="10" width="80" height="40" as="geometry"/>
                </mxCell>
                <mxCell id="M1kuKOY4G_Xc1Gv_RkIK-3" value="Analysis" style="rounded=1;whiteSpace=wrap;html=1;align=left;perimeterSpacing=3;strokeWidth=1;spacingLeft=0;spacingBottom=0;spacingTop=0;spacingRight=0;spacing=5;fillColor=#f8cecc;strokeColor=#b85450;" parent="1" vertex="1">
                    <mxGeometry x="1040" y="10" width="80" height="40" as="geometry"/>
                </mxCell>
                <mxCell id="M1kuKOY4G_Xc1Gv_RkIK-4" value="Conclusion" style="rounded=1;whiteSpace=wrap;html=1;align=left;perimeterSpacing=3;strokeWidth=1;spacingLeft=0;spacingBottom=0;spacingTop=0;spacingRight=0;spacing=5;fillColor=#bac8d3;strokeColor=#23445d;" parent="1" vertex="1">
                    <mxGeometry x="1520" y="10" width="80" height="40" as="geometry"/>
                </mxCell>
                <mxCell id="4" value="" style="endArrow=none;dashed=1;html=1;dashPattern=1 3;strokeWidth=2;" parent="1" edge="1">
                    <mxGeometry width="50" height="50" relative="1" as="geometry">
                        <mxPoint x="400" y="1230" as="sourcePoint"/>
                        <mxPoint x="400" y="1" as="targetPoint"/>
                    </mxGeometry>
                </mxCell>
                <mxCell id="5" value="" style="endArrow=none;dashed=1;html=1;dashPattern=1 3;strokeWidth=2;" parent="1" edge="1">
                    <mxGeometry width="50" height="50" relative="1" as="geometry">
                        <mxPoint x="800" y="1230" as="sourcePoint"/>
                        <mxPoint x="800" y="1" as="targetPoint"/>
                    </mxGeometry>
                </mxCell>
                <mxCell id="6" value="" style="endArrow=none;dashed=1;html=1;dashPattern=1 3;strokeWidth=2;" parent="1" edge="1">
                    <mxGeometry width="50" height="50" relative="1" as="geometry">
                        <mxPoint x="1360" y="1230" as="sourcePoint"/>
                        <mxPoint x="1360" y="1" as="targetPoint"/>
                    </mxGeometry>
                </mxCell>
                <mxCell id="8" value="How is process mining used?" style="rounded=1;whiteSpace=wrap;html=1;align=left;perimeterSpacing=3;strokeWidth=1;spacingLeft=0;spacingBottom=0;spacingTop=0;spacingRight=0;spacing=5;fillColor=#f5f5f5;fontColor=#333333;strokeColor=#666666;" parent="1" vertex="1">
                    <mxGeometry x="10" y="90" width="120" height="80" as="geometry"/>
                </mxCell>
                <mxCell id="12" value="Which effects does high code quality have on the development process?" style="rounded=1;whiteSpace=wrap;html=1;align=left;perimeterSpacing=3;strokeWidth=1;spacingLeft=0;spacingBottom=0;spacingTop=0;spacingRight=0;spacing=5;fillColor=#dae8fc;strokeColor=#6c8ebf;" parent="1" vertex="1">
                    <mxGeometry x="540" y="90" width="120" height="80" as="geometry"/>
                </mxCell>
                <mxCell id="13" value="How is code quality analysis currently integrated into OSS repositories?" style="rounded=1;whiteSpace=wrap;html=1;align=left;perimeterSpacing=3;strokeWidth=1;spacingLeft=0;spacingBottom=0;spacingTop=0;spacingRight=0;spacing=5;fillColor=#dae8fc;strokeColor=#6c8ebf;" parent="1" vertex="1">
                    <mxGeometry x="410" y="90" width="120" height="80" as="geometry"/>
                </mxCell>
                <mxCell id="14" value="&lt;font&gt;How does this compare to classical static analysis on code quality?&lt;/font&gt;" style="rounded=1;whiteSpace=wrap;html=1;align=left;perimeterSpacing=3;strokeWidth=1;spacingLeft=0;spacingBottom=0;spacingTop=0;spacingRight=0;spacing=5;fontSize=4;fillColor=#dae8fc;strokeColor=#6c8ebf;" parent="1" vertex="1">
                    <mxGeometry x="740" y="180" width="40" height="50" as="geometry"/>
                </mxCell>
                <mxCell id="17" value="Why are single metrics insufficient for measuring code quality?" style="rounded=1;whiteSpace=wrap;html=1;align=left;perimeterSpacing=3;strokeWidth=1;spacingLeft=0;spacingBottom=0;spacingTop=0;spacingRight=0;spacing=5;fontSize=4;fillColor=#dae8fc;strokeColor=#6c8ebf;" parent="1" vertex="1">
                    <mxGeometry x="550" y="180" width="40" height="50" as="geometry"/>
                </mxCell>
                <mxCell id="18" value="Which tools are used to measure code quality i.e., which metrics are used in selected three repositories?" style="rounded=1;whiteSpace=wrap;html=1;align=left;perimeterSpacing=3;strokeWidth=1;spacingLeft=0;spacingBottom=0;spacingTop=0;spacingRight=0;spacing=5;fontSize=4;fillColor=#dae8fc;strokeColor=#6c8ebf;" parent="1" vertex="1">
                    <mxGeometry x="480" y="180" width="40" height="50" as="geometry"/>
                </mxCell>
                <mxCell id="19" value="What indicators do code quality tools give with respect to reviewing a pull request?" style="rounded=1;whiteSpace=wrap;html=1;align=left;perimeterSpacing=3;strokeWidth=1;spacingLeft=0;spacingBottom=0;spacingTop=0;spacingRight=0;spacing=5;fontSize=4;fillColor=#dae8fc;strokeColor=#6c8ebf;" parent="1" vertex="1">
                    <mxGeometry x="680" y="180" width="40" height="50" as="geometry"/>
                </mxCell>
                <mxCell id="20" value="Which metrics are directly&lt;span style=&quot;color: rgb(255, 255, 255);&quot;&gt;&amp;nbsp;&lt;/span&gt;provided by GitHub?" style="rounded=1;whiteSpace=wrap;html=1;align=left;perimeterSpacing=3;strokeWidth=1;spacingLeft=0;spacingBottom=0;spacingTop=0;spacingRight=0;spacing=5;fontSize=4;fillColor=#dae8fc;strokeColor=#6c8ebf;" parent="1" vertex="1">
                    <mxGeometry x="420" y="180" width="40" height="50" as="geometry"/>
                </mxCell>
                <mxCell id="21" value="Why does spending time on improving code quality pay off?" style="rounded=1;whiteSpace=wrap;html=1;align=left;perimeterSpacing=3;strokeWidth=1;spacingLeft=0;spacingBottom=0;spacingTop=0;spacingRight=0;spacing=5;fontSize=4;fillColor=#dae8fc;strokeColor=#6c8ebf;" parent="1" vertex="1">
                    <mxGeometry x="610" y="180" width="40" height="50" as="geometry"/>
                </mxCell>
                <mxCell id="23" value="What properties of souce code do traditional code quality tools struggle to measure?" style="rounded=1;whiteSpace=wrap;html=1;align=left;perimeterSpacing=3;strokeWidth=1;spacingLeft=0;spacingBottom=0;spacingTop=0;spacingRight=0;spacing=5;fontSize=4;fillColor=#dae8fc;strokeColor=#6c8ebf;" parent="1" vertex="1">
                    <mxGeometry x="420" y="240" width="40" height="50" as="geometry"/>
                </mxCell>
                <mxCell id="24" value="Which processes exist in open source software repositories and how are they formalised?" style="rounded=1;whiteSpace=wrap;html=1;align=left;perimeterSpacing=3;strokeWidth=1;spacingLeft=0;spacingBottom=0;spacingTop=0;spacingRight=0;spacing=5;fillColor=#f5f5f5;fontColor=#333333;strokeColor=#666666;" parent="1" vertex="1">
                    <mxGeometry x="270" y="90" width="120" height="80" as="geometry"/>
                </mxCell>
                <mxCell id="26" value="How has process mining been used in the context of mining open source software repositories?" style="rounded=1;whiteSpace=wrap;html=1;align=left;perimeterSpacing=3;strokeWidth=1;spacingLeft=0;spacingBottom=0;spacingTop=0;spacingRight=0;spacing=5;fontSize=4;fillColor=#f5f5f5;fontColor=#333333;strokeColor=#666666;" parent="1" vertex="1">
                    <mxGeometry x="80" y="180" width="40" height="50" as="geometry"/>
                </mxCell>
                <mxCell id="27" value="What metrics are used most commonly in literature and which in practice" style="rounded=1;whiteSpace=wrap;html=1;align=left;perimeterSpacing=3;strokeWidth=1;spacingLeft=0;spacingBottom=0;spacingTop=0;spacingRight=0;spacing=5;fontSize=4;fillColor=#f5f5f5;fontColor=#333333;strokeColor=#666666;" parent="1" vertex="1">
                    <mxGeometry x="150" y="240" width="40" height="50" as="geometry"/>
                </mxCell>
                <mxCell id="33" value="How can code quality be measured within the pull request process?" style="rounded=1;whiteSpace=wrap;html=1;align=left;perimeterSpacing=3;strokeWidth=1;spacingLeft=0;spacingBottom=0;spacingTop=0;spacingRight=0;spacing=5;fontSize=4;fillColor=#f5f5f5;fontColor=#333333;strokeColor=#666666;" parent="1" vertex="1">
                    <mxGeometry x="280" y="240" width="40" height="50" as="geometry"/>
                </mxCell>
                <mxCell id="34" value="What processes exist and how are they realted?" style="rounded=1;whiteSpace=wrap;html=1;align=left;perimeterSpacing=3;strokeWidth=1;spacingLeft=0;spacingBottom=0;spacingTop=0;spacingRight=0;spacing=5;fontSize=4;fillColor=#f5f5f5;fontColor=#333333;strokeColor=#666666;" parent="1" vertex="1">
                    <mxGeometry x="280" y="180" width="40" height="50" as="geometry"/>
                </mxCell>
                <mxCell id="35" value="" style="endArrow=none;html=1;" parent="1" edge="1">
                    <mxGeometry width="50" height="50" relative="1" as="geometry">
                        <mxPoint x="810" y="240" as="sourcePoint"/>
                        <mxPoint x="1350" y="240" as="targetPoint"/>
                    </mxGeometry>
                </mxCell>
                <mxCell id="36" value="How can process models help developers better understand pull requests?" style="rounded=1;whiteSpace=wrap;html=1;align=left;perimeterSpacing=3;strokeWidth=1;spacingLeft=0;spacingBottom=0;spacingTop=0;spacingRight=0;spacing=5;fillColor=#dae8fc;strokeColor=#6c8ebf;" parent="1" vertex="1">
                    <mxGeometry x="670" y="90" width="120" height="80" as="geometry"/>
                </mxCell>
                <mxCell id="37" value="Code Quality (Commit Viewpoint)" style="rounded=1;whiteSpace=wrap;html=1;fillColor=#fff2cc;strokeColor=#d6b656;align=left;verticalAlign=middle;spacingLeft=0;labelPosition=right;verticalLabelPosition=middle;" parent="1" vertex="1">
                    <mxGeometry x="1180" y="790" width="20" height="20" as="geometry"/>
                </mxCell>
                <mxCell id="38" value="Pull Request Viewpoint" style="rounded=1;whiteSpace=wrap;html=1;fillColor=#ffe6cc;strokeColor=#d79b00;align=left;verticalAlign=middle;spacingLeft=0;labelPosition=right;verticalLabelPosition=middle;" parent="1" vertex="1">
                    <mxGeometry x="1090" y="790" width="20" height="20" as="geometry"/>
                </mxCell>
                <mxCell id="39" value="Review Viewpoint" style="rounded=1;whiteSpace=wrap;html=1;fillColor=#e1d5e7;strokeColor=#9673a6;align=left;verticalAlign=middle;spacingLeft=0;labelPosition=right;verticalLabelPosition=middle;" parent="1" vertex="1">
                    <mxGeometry x="1270" y="790" width="20" height="20" as="geometry"/>
                </mxCell>
                <mxCell id="40" value="Using Insights from Process Discovery for Conformance Checking" style="rounded=1;whiteSpace=wrap;html=1;align=left;perimeterSpacing=3;strokeWidth=1;spacingLeft=0;spacingBottom=0;spacingTop=0;spacingRight=0;spacing=5;fillColor=#d5e8d4;strokeColor=#82b366;" parent="1" vertex="1">
                    <mxGeometry x="1370" y="850" width="380" height="40" as="geometry"/>
                </mxCell>
                <mxCell id="41" value="Code Quality is especially relevant during the initial development within a repository" style="rounded=1;whiteSpace=wrap;html=1;align=left;perimeterSpacing=3;strokeWidth=1;spacingLeft=0;spacingBottom=0;spacingTop=0;spacingRight=0;spacing=5;fillColor=#bac8d3;strokeColor=#23445d;" parent="1" vertex="1">
                    <mxGeometry x="1370" y="90" width="120" height="80" as="geometry"/>
                </mxCell>
                <mxCell id="42" value="Code quality cannot uncover insights about aspects of the contribution process" style="rounded=1;whiteSpace=wrap;html=1;align=left;perimeterSpacing=3;strokeWidth=1;spacingLeft=0;spacingBottom=0;spacingTop=0;spacingRight=0;spacing=5;fillColor=#bac8d3;strokeColor=#23445d;" parent="1" vertex="1">
                    <mxGeometry x="1500" y="90" width="120" height="80" as="geometry"/>
                </mxCell>
                <mxCell id="43" value="OCPM helps embed quality notion into different viewpoints of maintaining a repository" style="rounded=1;whiteSpace=wrap;html=1;align=left;perimeterSpacing=3;strokeWidth=1;spacingLeft=0;spacingBottom=0;spacingTop=0;spacingRight=0;spacing=5;fillColor=#bac8d3;strokeColor=#23445d;" parent="1" vertex="1">
                    <mxGeometry x="1630" y="90" width="120" height="80" as="geometry"/>
                </mxCell>
                <mxCell id="48" value="&lt;span style=&quot;color: rgb(0, 0, 0);&quot;&gt;Untapped Potential for Large Scale Analysis of Pull Requests and Code Quality&lt;/span&gt;" style="rounded=1;whiteSpace=wrap;html=1;align=left;perimeterSpacing=3;strokeWidth=1;spacingLeft=0;spacingBottom=0;spacingTop=0;spacingRight=0;spacing=5;fillColor=#dae8fc;strokeColor=#6c8ebf;" parent="1" vertex="1">
                    <mxGeometry x="410" y="850" width="380" height="40" as="geometry"/>
                </mxCell>
                <mxCell id="50" value="What is code quality, how is it measured and what do we know about pull requests and the process to merge code with a repository" style="rounded=1;whiteSpace=wrap;html=1;align=left;perimeterSpacing=3;strokeWidth=1;spacingLeft=0;spacingBottom=0;spacingTop=0;spacingRight=0;spacing=5;fillColor=#f5f5f5;strokeColor=#666666;fontColor=#333333;" parent="1" vertex="1">
                    <mxGeometry x="10" y="850" width="380" height="40" as="geometry"/>
                </mxCell>
                <mxCell id="51" value="&#xa;How long are pull requests open on average and how does this compare to pull requests by the author of the pull request?&#xa;" style="rounded=1;align=center;perimeterSpacing=3;strokeWidth=1;spacingLeft=0;spacingBottom=0;spacingTop=0;spacingRight=0;spacing=5;fontSize=4;fillColor=#f8cecc;strokeColor=#b85450;labelPosition=center;verticalLabelPosition=middle;verticalAlign=middle;whiteSpace=wrap;" parent="1" vertex="1">
                    <mxGeometry x="1280" y="340" width="40" height="50" as="geometry"/>
                </mxCell>
                <mxCell id="66" value="How long are pull requests with the similar/same labels open on average?" style="rounded=1;align=center;perimeterSpacing=3;strokeWidth=1;spacingLeft=0;spacingBottom=0;spacingTop=0;spacingRight=0;spacing=5;fontSize=4;fillColor=#f8cecc;strokeColor=#b85450;labelPosition=center;verticalLabelPosition=middle;verticalAlign=middle;whiteSpace=wrap;" parent="1" vertex="1">
                    <mxGeometry x="1220" y="330" width="40" height="50" as="geometry"/>
                </mxCell>
                <mxCell id="72" value="Which code quality metrics are most suitable for process mining?" style="rounded=1;whiteSpace=wrap;html=1;align=left;perimeterSpacing=3;strokeWidth=1;spacingLeft=0;spacingBottom=0;spacingTop=0;spacingRight=0;spacing=5;fontSize=4;fillColor=#f8cecc;strokeColor=#b85450;" parent="1" vertex="1">
                    <mxGeometry x="860" y="180" width="40" height="50" as="geometry"/>
                </mxCell>
                <mxCell id="78" value="How many users interact on one pull request? Does this impact speed to resolve PRs i.e., do more reviewers lead to faster resolving times/higher code quality?" style="rounded=1;align=center;perimeterSpacing=3;strokeWidth=1;spacingLeft=0;spacingBottom=0;spacingTop=0;spacingRight=0;spacing=5;fontSize=4;fillColor=#f8cecc;strokeColor=#b85450;labelPosition=center;verticalLabelPosition=middle;verticalAlign=middle;whiteSpace=wrap;" parent="1" vertex="1">
                    <mxGeometry x="1260" y="395" width="40" height="50" as="geometry"/>
                </mxCell>
                <mxCell id="99" value="" style="rounded=1;whiteSpace=wrap;html=1;align=left;verticalAlign=middle;spacingLeft=0;labelPosition=right;verticalLabelPosition=middle;" parent="1" vertex="1">
                    <mxGeometry x="895" y="225" width="10" height="10" as="geometry"/>
                </mxCell>
                <mxCell id="92" value="" style="rounded=1;whiteSpace=wrap;html=1;fillColor=#fff2cc;strokeColor=#d6b656;align=left;verticalAlign=middle;spacingLeft=0;labelPosition=right;verticalLabelPosition=middle;" parent="1" vertex="1">
                    <mxGeometry x="900" y="225" width="5" height="5" as="geometry"/>
                </mxCell>
                <mxCell id="95" value="" style="rounded=1;whiteSpace=wrap;html=1;fillColor=#ffe6cc;strokeColor=#d79b00;align=left;verticalAlign=middle;spacingLeft=0;labelPosition=right;verticalLabelPosition=middle;" parent="1" vertex="1">
                    <mxGeometry x="895" y="225" width="5" height="5" as="geometry"/>
                </mxCell>
                <mxCell id="100" value="" style="rounded=1;whiteSpace=wrap;html=1;fillColor=#e1d5e7;strokeColor=#9673a6;align=left;verticalAlign=middle;spacingLeft=0;labelPosition=right;verticalLabelPosition=middle;" parent="1" vertex="1">
                    <mxGeometry x="895" y="230" width="5" height="5" as="geometry"/>
                </mxCell>
                <mxCell id="105" value="" style="rounded=1;whiteSpace=wrap;html=1;align=left;verticalAlign=middle;spacingLeft=0;labelPosition=right;verticalLabelPosition=middle;" parent="1" vertex="1">
                    <mxGeometry x="1315" y="385" width="10" height="10" as="geometry"/>
                </mxCell>
                <mxCell id="106" value="" style="rounded=1;whiteSpace=wrap;html=1;fillColor=#fff2cc;strokeColor=#d6b656;align=left;verticalAlign=middle;spacingLeft=0;labelPosition=right;verticalLabelPosition=middle;" parent="1" vertex="1">
                    <mxGeometry x="1320" y="385" width="5" height="5" as="geometry"/>
                </mxCell>
                <mxCell id="107" value="" style="rounded=1;whiteSpace=wrap;html=1;fillColor=#ffe6cc;strokeColor=#d79b00;align=left;verticalAlign=middle;spacingLeft=0;labelPosition=right;verticalLabelPosition=middle;" parent="1" vertex="1">
                    <mxGeometry x="1315" y="385" width="5" height="5" as="geometry"/>
                </mxCell>
                <mxCell id="108" value="" style="rounded=1;whiteSpace=wrap;html=1;fillColor=#e1d5e7;strokeColor=#9673a6;align=left;verticalAlign=middle;spacingLeft=0;labelPosition=right;verticalLabelPosition=middle;" parent="1" vertex="1">
                    <mxGeometry x="1315" y="390" width="5" height="5" as="geometry"/>
                </mxCell>
                <mxCell id="119" value="" style="rounded=1;whiteSpace=wrap;html=1;fillColor=#ffe6cc;strokeColor=#d79b00;align=left;verticalAlign=middle;spacingLeft=0;labelPosition=right;verticalLabelPosition=middle;" parent="1" vertex="1">
                    <mxGeometry x="972" y="390" width="5" height="5" as="geometry"/>
                </mxCell>
                <mxCell id="157" value="" style="rounded=1;whiteSpace=wrap;html=1;align=left;verticalAlign=middle;spacingLeft=0;labelPosition=right;verticalLabelPosition=middle;" parent="1" vertex="1">
                    <mxGeometry x="1255" y="375" width="10" height="10" as="geometry"/>
                </mxCell>
                <mxCell id="159" value="" style="rounded=1;whiteSpace=wrap;html=1;fillColor=#ffe6cc;strokeColor=#d79b00;align=left;verticalAlign=middle;spacingLeft=0;labelPosition=right;verticalLabelPosition=middle;" parent="1" vertex="1">
                    <mxGeometry x="1255" y="375" width="5" height="5" as="geometry"/>
                </mxCell>
                <mxCell id="161" value="" style="rounded=1;whiteSpace=wrap;html=1;align=left;verticalAlign=middle;spacingLeft=0;labelPosition=right;verticalLabelPosition=middle;" parent="1" vertex="1">
                    <mxGeometry x="1295" y="440" width="10" height="10" as="geometry"/>
                </mxCell>
                <mxCell id="162" value="" style="rounded=1;whiteSpace=wrap;html=1;fillColor=#fff2cc;strokeColor=#d6b656;align=left;verticalAlign=middle;spacingLeft=0;labelPosition=right;verticalLabelPosition=middle;" parent="1" vertex="1">
                    <mxGeometry x="1300" y="440" width="5" height="5" as="geometry"/>
                </mxCell>
                <mxCell id="163" value="" style="rounded=1;whiteSpace=wrap;html=1;fillColor=#ffe6cc;strokeColor=#d79b00;align=left;verticalAlign=middle;spacingLeft=0;labelPosition=right;verticalLabelPosition=middle;" parent="1" vertex="1">
                    <mxGeometry x="1295" y="440" width="5" height="5" as="geometry"/>
                </mxCell>
                <mxCell id="164" value="" style="rounded=1;whiteSpace=wrap;html=1;fillColor=#e1d5e7;strokeColor=#9673a6;align=left;verticalAlign=middle;spacingLeft=0;labelPosition=right;verticalLabelPosition=middle;" parent="1" vertex="1">
                    <mxGeometry x="1295" y="445" width="5" height="5" as="geometry"/>
                </mxCell>
                <mxCell id="276" value="How does code quality evolve over time, and how does the meaning of metrics change depending on the stage of development?" style="rounded=1;whiteSpace=wrap;html=1;align=left;perimeterSpacing=3;strokeWidth=1;spacingLeft=0;spacingBottom=0;spacingTop=0;spacingRight=0;spacing=5;fontSize=4;fillColor=#bac8d3;strokeColor=#23445d;" parent="1" vertex="1">
                    <mxGeometry x="1440" y="180" width="40" height="50" as="geometry"/>
                </mxCell>
                <mxCell id="277" value="Why is code quality together with process mining more effective than either option alone?&amp;nbsp;" style="rounded=1;whiteSpace=wrap;html=1;align=left;perimeterSpacing=3;strokeWidth=1;spacingLeft=0;spacingBottom=0;spacingTop=0;spacingRight=0;spacing=5;fontSize=4;fillColor=#bac8d3;strokeColor=#23445d;" parent="1" vertex="1">
                    <mxGeometry x="1510" y="180" width="40" height="50" as="geometry"/>
                </mxCell>
                <mxCell id="278" value="What new metrics might be formed and how likely are they to succeed?" style="rounded=1;whiteSpace=wrap;html=1;align=left;perimeterSpacing=3;strokeWidth=1;spacingLeft=0;spacingBottom=0;spacingTop=0;spacingRight=0;spacing=5;fontSize=4;fillColor=#bac8d3;strokeColor=#23445d;" parent="1" vertex="1">
                    <mxGeometry x="1570" y="180" width="40" height="50" as="geometry"/>
                </mxCell>
                <mxCell id="279" value="Why is object-centric process mining more useful than traditional process mining in this case?" style="rounded=1;whiteSpace=wrap;html=1;align=left;perimeterSpacing=3;strokeWidth=1;spacingLeft=0;spacingBottom=0;spacingTop=0;spacingRight=0;spacing=5;fontSize=4;fillColor=#bac8d3;strokeColor=#23445d;" parent="1" vertex="1">
                    <mxGeometry x="1640" y="180" width="40" height="50" as="geometry"/>
                </mxCell>
                <mxCell id="280" value="Why are pull requests relevant to investigate in addition to commits and reviews?" style="rounded=1;whiteSpace=wrap;html=1;align=left;perimeterSpacing=3;strokeWidth=1;spacingLeft=0;spacingBottom=0;spacingTop=0;spacingRight=0;spacing=5;fontSize=4;fillColor=#bac8d3;strokeColor=#23445d;" parent="1" vertex="1">
                    <mxGeometry x="1700" y="180" width="40" height="50" as="geometry"/>
                </mxCell>
                <mxCell id="284" value="&lt;ol&gt;&lt;li&gt;&lt;font style=&quot;font-size: 11px;&quot;&gt;For selected repositoreis insert URL for fetching pull request and commit information&lt;/font&gt;&lt;/li&gt;&lt;li&gt;&lt;font style=&quot;font-size: 11px;&quot;&gt;Decide on timeframe of analysis (consider time frame definition per commit sha, tag, date or release)&lt;/font&gt;&lt;/li&gt;&lt;li&gt;&lt;font style=&quot;font-size: 11px;&quot;&gt;Check already stored event types and object types for style and adherence to current definition&lt;/font&gt;&lt;/li&gt;&lt;li&gt;&lt;font style=&quot;font-size: 11px;&quot;&gt;Add new object types and event types to OCEL log&lt;/font&gt;&lt;/li&gt;&lt;li&gt;&lt;font style=&quot;font-size: 11px;&quot;&gt;Add new object to OCEL&lt;/font&gt;&lt;/li&gt;&lt;ol&gt;&lt;li&gt;&lt;font style=&quot;font-size: 11px;&quot;&gt;Check if object already exists by using its ID&lt;/font&gt;&lt;/li&gt;&lt;li&gt;&lt;font style=&quot;font-size: 11px;&quot;&gt;Check adherence to defined object type in 4.&amp;nbsp;&lt;/font&gt;&lt;/li&gt;&lt;li&gt;&lt;font style=&quot;font-size: 11px;&quot;&gt;Add object with its relationships and initial attributes to OCEL&lt;/font&gt;&lt;/li&gt;&lt;/ol&gt;&lt;li&gt;&lt;font style=&quot;font-size: 11px;&quot;&gt;Add new events to OCEL&lt;/font&gt;&lt;/li&gt;&lt;ol&gt;&lt;li&gt;&lt;font style=&quot;font-size: 11px;&quot;&gt;Check if event at same time already exists and compare IDs&lt;/font&gt;&lt;/li&gt;&lt;li&gt;&lt;font style=&quot;font-size: 11px;&quot;&gt;Check adherence to event types defined in 4.&lt;/font&gt;&lt;/li&gt;&lt;li&gt;&lt;font style=&quot;font-size: 11px;&quot;&gt;Add event with its relationships and update objects accordingly (e.g. rename)&lt;/font&gt;&lt;/li&gt;&lt;/ol&gt;&lt;li&gt;&lt;font style=&quot;font-size: 11px;&quot;&gt;Export/store OCEL or otherwise mark extraction as finished&lt;/font&gt;&lt;/li&gt;&lt;li&gt;&lt;font style=&quot;font-size: 11px;&quot;&gt;Analyse OCEL according to above analysis questions&lt;/font&gt;&lt;/li&gt;&lt;/ol&gt;" style="align=left;html=1;whiteSpace=wrap;verticalAlign=top;spacing=0;" parent="1" vertex="1">
                    <mxGeometry x="810" y="900" width="540" height="330" as="geometry"/>
                </mxCell>
                <mxCell id="287" value="What is code quality?" style="rounded=1;whiteSpace=wrap;html=1;align=left;perimeterSpacing=3;strokeWidth=1;spacingLeft=0;spacingBottom=0;spacingTop=0;spacingRight=0;spacing=5;fontSize=4;fillColor=#f5f5f5;fontColor=#333333;strokeColor=#666666;" vertex="1" parent="1">
                    <mxGeometry x="150" y="180" width="40" height="50" as="geometry"/>
                </mxCell>
                <mxCell id="288" value="How is code quality measured?" style="rounded=1;whiteSpace=wrap;html=1;align=left;perimeterSpacing=3;strokeWidth=1;spacingLeft=0;spacingBottom=0;spacingTop=0;spacingRight=0;spacing=5;fillColor=#f5f5f5;fontColor=#333333;strokeColor=#666666;" vertex="1" parent="1">
                    <mxGeometry x="140" y="90" width="120" height="80" as="geometry"/>
                </mxCell>
                <mxCell id="289" value="What types of code quality metrics exist?" style="rounded=1;whiteSpace=wrap;html=1;align=left;perimeterSpacing=3;strokeWidth=1;spacingLeft=0;spacingBottom=0;spacingTop=0;spacingRight=0;spacing=5;fontSize=4;fillColor=#f5f5f5;fontColor=#333333;strokeColor=#666666;" vertex="1" parent="1">
                    <mxGeometry x="210" y="180" width="40" height="50" as="geometry"/>
                </mxCell>
                <mxCell id="290" value="Why is the pull request process targeted for analysis in this thesis?" style="rounded=1;whiteSpace=wrap;html=1;align=left;perimeterSpacing=3;strokeWidth=1;spacingLeft=0;spacingBottom=0;spacingTop=0;spacingRight=0;spacing=5;fontSize=4;fillColor=#f5f5f5;fontColor=#333333;strokeColor=#666666;" vertex="1" parent="1">
                    <mxGeometry x="340" y="180" width="40" height="50" as="geometry"/>
                </mxCell>
                <mxCell id="293" value="What is the baseline development process and code quality" style="rounded=1;whiteSpace=wrap;html=1;align=left;perimeterSpacing=3;strokeWidth=1;spacingLeft=0;spacingBottom=0;spacingTop=0;spacingRight=0;spacing=5;fontSize=4;fillColor=#f8cecc;strokeColor=#b85450;" vertex="1" parent="1">
                    <mxGeometry x="932" y="345" width="40" height="50" as="geometry"/>
                </mxCell>
                <mxCell id="294" value="" style="rounded=1;whiteSpace=wrap;html=1;align=left;verticalAlign=middle;spacingLeft=0;labelPosition=right;verticalLabelPosition=middle;" vertex="1" parent="1">
                    <mxGeometry x="967" y="390" width="10" height="10" as="geometry"/>
                </mxCell>
                <mxCell id="295" value="" style="rounded=1;whiteSpace=wrap;html=1;fillColor=#fff2cc;strokeColor=#d6b656;align=left;verticalAlign=middle;spacingLeft=0;labelPosition=right;verticalLabelPosition=middle;" vertex="1" parent="1">
                    <mxGeometry x="972" y="390" width="5" height="5" as="geometry"/>
                </mxCell>
                <mxCell id="296" value="" style="rounded=1;whiteSpace=wrap;html=1;fillColor=#ffe6cc;strokeColor=#d79b00;align=left;verticalAlign=middle;spacingLeft=0;labelPosition=right;verticalLabelPosition=middle;" vertex="1" parent="1">
                    <mxGeometry x="967" y="390" width="5" height="5" as="geometry"/>
                </mxCell>
                <mxCell id="304" value="Which categories of code quality metrics exist?" style="rounded=1;whiteSpace=wrap;html=1;align=left;perimeterSpacing=3;strokeWidth=1;spacingLeft=0;spacingBottom=0;spacingTop=0;spacingRight=0;spacing=5;fontSize=4;fillColor=#f8cecc;strokeColor=#b85450;" vertex="1" parent="1">
                    <mxGeometry x="810" y="180" width="40" height="50" as="geometry"/>
                </mxCell>
                <mxCell id="305" value="Which objects and events can be related with code quality?" style="rounded=1;whiteSpace=wrap;html=1;align=left;perimeterSpacing=3;strokeWidth=1;spacingLeft=0;spacingBottom=0;spacingTop=0;spacingRight=0;spacing=5;fontSize=4;fillColor=#f8cecc;strokeColor=#b85450;" vertex="1" parent="1">
                    <mxGeometry x="910" y="180" width="40" height="50" as="geometry"/>
                </mxCell>
                <mxCell id="306" value="Does the Pylint score evolve differently compared to the Maintainability Index?" style="rounded=1;align=center;perimeterSpacing=3;strokeWidth=1;spacingLeft=0;spacingBottom=0;spacingTop=0;spacingRight=0;spacing=5;fontSize=4;fillColor=#f8cecc;strokeColor=#b85450;labelPosition=center;verticalLabelPosition=middle;verticalAlign=middle;whiteSpace=wrap;" vertex="1" parent="1">
                    <mxGeometry x="1010" y="180" width="40" height="50" as="geometry"/>
                </mxCell>
                <mxCell id="309" style="edgeStyle=none;html=1;endArrow=none;endFill=0;" edge="1" parent="1" source="307" target="308">
                    <mxGeometry relative="1" as="geometry"/>
                </mxCell>
                <mxCell id="307" value="Can changes in the contribution process can be measured in code quality?" style="rounded=1;align=center;perimeterSpacing=3;strokeWidth=1;spacingLeft=0;spacingBottom=0;spacingTop=0;spacingRight=0;spacing=5;fontSize=4;fillColor=#f8cecc;strokeColor=#b85450;labelPosition=center;verticalLabelPosition=middle;verticalAlign=middle;whiteSpace=wrap;" vertex="1" parent="1">
                    <mxGeometry x="1110" y="180" width="40" height="50" as="geometry"/>
                </mxCell>
                <mxCell id="308" value="What measures influence code quality" style="rounded=1;align=center;perimeterSpacing=3;strokeWidth=1;spacingLeft=0;spacingBottom=0;spacingTop=0;spacingRight=0;spacing=5;fontSize=4;fillColor=#f8cecc;strokeColor=#b85450;labelPosition=center;verticalLabelPosition=middle;verticalAlign=middle;whiteSpace=wrap;" vertex="1" parent="1">
                    <mxGeometry x="1060" y="180" width="40" height="50" as="geometry"/>
                </mxCell>
                <mxCell id="310" value="After which time can developers expect changes in guidelines to be reflected in real life processes?" style="rounded=1;whiteSpace=wrap;html=1;align=left;perimeterSpacing=3;strokeWidth=1;spacingLeft=0;spacingBottom=0;spacingTop=0;spacingRight=0;spacing=5;fontSize=4;fillColor=#f8cecc;strokeColor=#b85450;" vertex="1" parent="1">
                    <mxGeometry x="1210" y="180" width="40" height="50" as="geometry"/>
                </mxCell>
                <mxCell id="311" value="How does a new process instance compare to older models with respect ot response time, process &amp;amp; code quality?" style="rounded=1;whiteSpace=wrap;html=1;align=left;perimeterSpacing=3;strokeWidth=1;spacingLeft=0;spacingBottom=0;spacingTop=0;spacingRight=0;spacing=5;fontSize=4;fillColor=#f8cecc;strokeColor=#b85450;" vertex="1" parent="1">
                    <mxGeometry x="1260" y="180" width="40" height="50" as="geometry"/>
                </mxCell>
                <mxCell id="312" value="How often do contribution guidelines change" style="rounded=1;whiteSpace=wrap;html=1;align=left;perimeterSpacing=3;strokeWidth=1;spacingLeft=0;spacingBottom=0;spacingTop=0;spacingRight=0;spacing=5;fontSize=4;fillColor=#f8cecc;strokeColor=#b85450;" vertex="1" parent="1">
                    <mxGeometry x="830" y="350" width="40" height="50" as="geometry"/>
                </mxCell>
                <mxCell id="313" value="How many pull requests are developers working on simultaneously?" style="rounded=1;whiteSpace=wrap;html=1;align=left;perimeterSpacing=3;strokeWidth=1;spacingLeft=0;spacingBottom=0;spacingTop=0;spacingRight=0;spacing=5;fontSize=4;fillColor=#f8cecc;strokeColor=#b85450;" vertex="1" parent="1">
                    <mxGeometry x="1310" y="180" width="40" height="50" as="geometry"/>
                </mxCell>
                <mxCell id="316" value="" style="endArrow=none;html=1;" edge="1" parent="1">
                    <mxGeometry width="50" height="50" relative="1" as="geometry">
                        <mxPoint x="11" y="850" as="sourcePoint"/>
                        <mxPoint x="1761" y="850" as="targetPoint"/>
                    </mxGeometry>
                </mxCell>
                <mxCell id="318" value="" style="group" vertex="1" connectable="0" parent="1">
                    <mxGeometry x="1220" y="480" width="45" height="55" as="geometry"/>
                </mxCell>
                <mxCell id="74" value="How often are files edited?" style="rounded=1;whiteSpace=wrap;html=1;align=left;perimeterSpacing=3;strokeWidth=1;spacingLeft=0;spacingBottom=0;spacingTop=0;spacingRight=0;spacing=5;fontSize=4;fillColor=#f8cecc;strokeColor=#b85450;" parent="318" vertex="1">
                    <mxGeometry width="40" height="50" as="geometry"/>
                </mxCell>
                <mxCell id="137" value="" style="rounded=1;whiteSpace=wrap;html=1;align=left;verticalAlign=middle;spacingLeft=0;labelPosition=right;verticalLabelPosition=middle;" parent="318" vertex="1">
                    <mxGeometry x="35" y="45" width="10" height="10" as="geometry"/>
                </mxCell>
                <mxCell id="138" value="" style="rounded=1;whiteSpace=wrap;html=1;fillColor=#fff2cc;strokeColor=#d6b656;align=left;verticalAlign=middle;spacingLeft=0;labelPosition=right;verticalLabelPosition=middle;" parent="318" vertex="1">
                    <mxGeometry x="40" y="45" width="5" height="5" as="geometry"/>
                </mxCell>
                <mxCell id="319" value="" style="group" vertex="1" connectable="0" parent="1">
                    <mxGeometry x="1220" y="540" width="45" height="55" as="geometry"/>
                </mxCell>
                <mxCell id="76" value="Which file type is modified most often?" style="rounded=1;whiteSpace=wrap;html=1;align=left;perimeterSpacing=3;strokeWidth=1;spacingLeft=0;spacingBottom=0;spacingTop=0;spacingRight=0;spacing=5;fontSize=4;fillColor=#f8cecc;strokeColor=#b85450;" parent="319" vertex="1">
                    <mxGeometry width="40" height="50" as="geometry"/>
                </mxCell>
                <mxCell id="165" value="" style="rounded=1;whiteSpace=wrap;html=1;align=left;verticalAlign=middle;spacingLeft=0;labelPosition=right;verticalLabelPosition=middle;" parent="319" vertex="1">
                    <mxGeometry x="35" y="45" width="10" height="10" as="geometry"/>
                </mxCell>
                <mxCell id="166" value="" style="rounded=1;whiteSpace=wrap;html=1;fillColor=#fff2cc;strokeColor=#d6b656;align=left;verticalAlign=middle;spacingLeft=0;labelPosition=right;verticalLabelPosition=middle;" parent="319" vertex="1">
                    <mxGeometry x="40" y="45" width="5" height="5" as="geometry"/>
                </mxCell>
                <mxCell id="320" value="" style="group" vertex="1" connectable="0" parent="1">
                    <mxGeometry x="1280" y="540" width="45" height="55" as="geometry"/>
                </mxCell>
                <mxCell id="WlSLyMddTxWrjb-d0O-I-139" value="How does &amp;nbsp;meaningfulness of metrics compare and how are individual quality metrics combined to form one code quality score?" style="rounded=1;whiteSpace=wrap;html=1;align=left;perimeterSpacing=3;strokeWidth=1;spacingLeft=0;spacingBottom=0;spacingTop=0;spacingRight=0;spacing=5;fontSize=4;fillColor=#f8cecc;strokeColor=#b85450;" parent="320" vertex="1">
                    <mxGeometry width="40" height="50" as="geometry"/>
                </mxCell>
                <mxCell id="129" value="" style="rounded=1;whiteSpace=wrap;html=1;align=left;verticalAlign=middle;spacingLeft=0;labelPosition=right;verticalLabelPosition=middle;" parent="320" vertex="1">
                    <mxGeometry x="35" y="45" width="10" height="10" as="geometry"/>
                </mxCell>
                <mxCell id="130" value="" style="rounded=1;whiteSpace=wrap;html=1;fillColor=#fff2cc;strokeColor=#d6b656;align=left;verticalAlign=middle;spacingLeft=0;labelPosition=right;verticalLabelPosition=middle;" parent="320" vertex="1">
                    <mxGeometry x="40" y="45" width="5" height="5" as="geometry"/>
                </mxCell>
                <mxCell id="321" value="" style="group" vertex="1" connectable="0" parent="1">
                    <mxGeometry x="1010" y="350" width="45" height="55" as="geometry"/>
                </mxCell>
                <mxCell id="75" value="Is the size/frequency of edits decreasing as the codebase gets more stable or larger and how does this influence code quality?" style="rounded=1;whiteSpace=wrap;html=1;align=left;perimeterSpacing=3;strokeWidth=1;spacingLeft=0;spacingBottom=0;spacingTop=0;spacingRight=0;spacing=5;fontSize=4;fillColor=#f8cecc;strokeColor=#b85450;" parent="321" vertex="1">
                    <mxGeometry width="40" height="50" as="geometry"/>
                </mxCell>
                <mxCell id="133" value="" style="rounded=1;whiteSpace=wrap;html=1;align=left;verticalAlign=middle;spacingLeft=0;labelPosition=right;verticalLabelPosition=middle;" parent="321" vertex="1">
                    <mxGeometry x="35" y="45" width="10" height="10" as="geometry"/>
                </mxCell>
                <mxCell id="135" value="" style="rounded=1;whiteSpace=wrap;html=1;fillColor=#ffe6cc;strokeColor=#d79b00;align=left;verticalAlign=middle;spacingLeft=0;labelPosition=right;verticalLabelPosition=middle;" parent="321" vertex="1">
                    <mxGeometry x="35" y="45" width="5" height="5" as="geometry"/>
                </mxCell>
                <mxCell id="WlSLyMddTxWrjb-d0O-I-142" value="Between which points in time is measuring the changes in code quality metrics most effective?" style="rounded=1;whiteSpace=wrap;html=1;align=left;perimeterSpacing=3;strokeWidth=1;spacingLeft=0;spacingBottom=0;spacingTop=0;spacingRight=0;spacing=5;fontSize=4;fillColor=#f8cecc;strokeColor=#b85450;" parent="1" vertex="1">
                    <mxGeometry x="1100" y="360" width="40" height="50" as="geometry"/>
                </mxCell>
                <mxCell id="44" value="Where is most time spent waiting for the next step?" style="rounded=1;whiteSpace=wrap;html=1;align=left;perimeterSpacing=3;strokeWidth=1;spacingLeft=0;spacingBottom=0;spacingTop=0;spacingRight=0;spacing=5;fontSize=4;fillColor=#f8cecc;strokeColor=#b85450;" parent="1" vertex="1">
                    <mxGeometry x="1160" y="360" width="40" height="50" as="geometry"/>
                </mxCell>
                <mxCell id="45" value="How do the review processes differ between different repositories?" style="rounded=1;whiteSpace=wrap;html=1;align=left;perimeterSpacing=3;strokeWidth=1;spacingLeft=0;spacingBottom=0;spacingTop=0;spacingRight=0;spacing=5;fontSize=4;fillColor=#f8cecc;strokeColor=#b85450;" parent="1" vertex="1">
                    <mxGeometry x="1160" y="420" width="40" height="50" as="geometry"/>
                </mxCell>
                <mxCell id="57" value="How did the code quality vary between previous pull requests made by the author and in which time frame were these pull requests merged?" style="rounded=1;align=center;perimeterSpacing=3;strokeWidth=1;spacingLeft=0;spacingBottom=0;spacingTop=0;spacingRight=0;spacing=5;fontSize=4;fillColor=#f8cecc;strokeColor=#b85450;labelPosition=center;verticalLabelPosition=middle;verticalAlign=middle;whiteSpace=wrap;textShadow=1;" parent="1" vertex="1">
                    <mxGeometry x="1100" y="420" width="40" height="50" as="geometry"/>
                </mxCell>
                <mxCell id="62" value="Did previous commits/pull requests of this pull request author improve code quality?" style="rounded=1;align=center;perimeterSpacing=3;strokeWidth=1;spacingLeft=0;spacingBottom=0;spacingTop=0;spacingRight=0;spacing=5;fontSize=4;fillColor=#f8cecc;strokeColor=#b85450;labelPosition=center;verticalLabelPosition=middle;verticalAlign=middle;whiteSpace=wrap;textShadow=1;" parent="1" vertex="1">
                    <mxGeometry x="1160" y="480" width="40" height="50" as="geometry"/>
                </mxCell>
                <mxCell id="63" value="How long does the author normally take to implement requested changes after a review and does this correlate with the size of the pull request?" style="rounded=1;align=center;perimeterSpacing=3;strokeWidth=1;spacingLeft=0;spacingBottom=0;spacingTop=0;spacingRight=0;spacing=5;fontSize=4;fillColor=#f8cecc;strokeColor=#b85450;labelPosition=center;verticalLabelPosition=middle;verticalAlign=middle;whiteSpace=wrap;textShadow=1;" parent="1" vertex="1">
                    <mxGeometry x="1100" y="540" width="40" height="50" as="geometry"/>
                </mxCell>
                <mxCell id="65" value="In which other development activities is the author of the pull request involved in?" style="rounded=1;align=center;perimeterSpacing=3;strokeWidth=1;spacingLeft=0;spacingBottom=0;spacingTop=0;spacingRight=0;spacing=5;fontSize=4;fillColor=#f8cecc;strokeColor=#b85450;labelPosition=center;verticalLabelPosition=middle;verticalAlign=middle;whiteSpace=wrap;textShadow=1;" parent="1" vertex="1">
                    <mxGeometry x="1160" y="540" width="40" height="50" as="geometry"/>
                </mxCell>
                <mxCell id="68" value="What percentage of pull requests by a certain user were successfully merged?" style="rounded=1;align=center;perimeterSpacing=3;strokeWidth=1;spacingLeft=0;spacingBottom=0;spacingTop=0;spacingRight=0;spacing=5;fontSize=4;fillColor=#f8cecc;strokeColor=#b85450;labelPosition=center;verticalLabelPosition=middle;verticalAlign=middle;whiteSpace=wrap;textShadow=1;" parent="1" vertex="1">
                    <mxGeometry x="1100" y="600" width="40" height="50" as="geometry"/>
                </mxCell>
                <mxCell id="89" value="Do users both commit and review during one pull request and which author association do they have with the repository?" style="rounded=1;align=center;perimeterSpacing=3;strokeWidth=1;spacingLeft=0;spacingBottom=0;spacingTop=0;spacingRight=0;spacing=5;fontSize=4;fillColor=#f8cecc;strokeColor=#b85450;labelPosition=center;verticalLabelPosition=middle;verticalAlign=middle;whiteSpace=wrap;textShadow=1;" parent="1" vertex="1">
                    <mxGeometry x="1100" y="480" width="40" height="50" as="geometry"/>
                </mxCell>
                <mxCell id="173" value="" style="rounded=1;whiteSpace=wrap;html=1;align=left;verticalAlign=middle;spacingLeft=0;labelPosition=right;verticalLabelPosition=middle;" parent="1" vertex="1">
                    <mxGeometry x="1135" y="405" width="10" height="10" as="geometry"/>
                </mxCell>
                <mxCell id="174" value="" style="rounded=1;whiteSpace=wrap;html=1;fillColor=#fff2cc;strokeColor=#d6b656;align=left;verticalAlign=middle;spacingLeft=0;labelPosition=right;verticalLabelPosition=middle;" parent="1" vertex="1">
                    <mxGeometry x="1140" y="405" width="5" height="5" as="geometry"/>
                </mxCell>
                <mxCell id="177" value="" style="rounded=1;whiteSpace=wrap;html=1;align=left;verticalAlign=middle;spacingLeft=0;labelPosition=right;verticalLabelPosition=middle;" parent="1" vertex="1">
                    <mxGeometry x="1195" y="405" width="10" height="10" as="geometry"/>
                </mxCell>
                <mxCell id="178" value="" style="rounded=1;whiteSpace=wrap;html=1;fillColor=#fff2cc;strokeColor=#d6b656;align=left;verticalAlign=middle;spacingLeft=0;labelPosition=right;verticalLabelPosition=middle;" parent="1" vertex="1">
                    <mxGeometry x="1200" y="405" width="5" height="5" as="geometry"/>
                </mxCell>
                <mxCell id="179" value="" style="rounded=1;whiteSpace=wrap;html=1;fillColor=#ffe6cc;strokeColor=#d79b00;align=left;verticalAlign=middle;spacingLeft=0;labelPosition=right;verticalLabelPosition=middle;" parent="1" vertex="1">
                    <mxGeometry x="1195" y="405" width="5" height="5" as="geometry"/>
                </mxCell>
                <mxCell id="180" value="" style="rounded=1;whiteSpace=wrap;html=1;fillColor=#e1d5e7;strokeColor=#9673a6;align=left;verticalAlign=middle;spacingLeft=0;labelPosition=right;verticalLabelPosition=middle;" parent="1" vertex="1">
                    <mxGeometry x="1195" y="410" width="5" height="5" as="geometry"/>
                </mxCell>
                <mxCell id="181" value="" style="rounded=1;whiteSpace=wrap;html=1;align=left;verticalAlign=middle;spacingLeft=0;labelPosition=right;verticalLabelPosition=middle;" parent="1" vertex="1">
                    <mxGeometry x="1135" y="465" width="10" height="10" as="geometry"/>
                </mxCell>
                <mxCell id="182" value="" style="rounded=1;whiteSpace=wrap;html=1;fillColor=#fff2cc;strokeColor=#d6b656;align=left;verticalAlign=middle;spacingLeft=0;labelPosition=right;verticalLabelPosition=middle;" parent="1" vertex="1">
                    <mxGeometry x="1140" y="465" width="5" height="5" as="geometry"/>
                </mxCell>
                <mxCell id="183" value="" style="rounded=1;whiteSpace=wrap;html=1;fillColor=#ffe6cc;strokeColor=#d79b00;align=left;verticalAlign=middle;spacingLeft=0;labelPosition=right;verticalLabelPosition=middle;" parent="1" vertex="1">
                    <mxGeometry x="1135" y="465" width="5" height="5" as="geometry"/>
                </mxCell>
                <mxCell id="185" value="" style="rounded=1;whiteSpace=wrap;html=1;align=left;verticalAlign=middle;spacingLeft=0;labelPosition=right;verticalLabelPosition=middle;" parent="1" vertex="1">
                    <mxGeometry x="1195" y="465" width="10" height="10" as="geometry"/>
                </mxCell>
                <mxCell id="188" value="" style="rounded=1;whiteSpace=wrap;html=1;fillColor=#e1d5e7;strokeColor=#9673a6;align=left;verticalAlign=middle;spacingLeft=0;labelPosition=right;verticalLabelPosition=middle;" parent="1" vertex="1">
                    <mxGeometry x="1195" y="470" width="5" height="5" as="geometry"/>
                </mxCell>
                <mxCell id="193" value="" style="rounded=1;whiteSpace=wrap;html=1;align=left;verticalAlign=middle;spacingLeft=0;labelPosition=right;verticalLabelPosition=middle;" parent="1" vertex="1">
                    <mxGeometry x="1195" y="525" width="10" height="10" as="geometry"/>
                </mxCell>
                <mxCell id="194" value="" style="rounded=1;whiteSpace=wrap;html=1;fillColor=#fff2cc;strokeColor=#d6b656;align=left;verticalAlign=middle;spacingLeft=0;labelPosition=right;verticalLabelPosition=middle;" parent="1" vertex="1">
                    <mxGeometry x="1200" y="525" width="5" height="5" as="geometry"/>
                </mxCell>
                <mxCell id="195" value="" style="rounded=1;whiteSpace=wrap;html=1;fillColor=#ffe6cc;strokeColor=#d79b00;align=left;verticalAlign=middle;spacingLeft=0;labelPosition=right;verticalLabelPosition=middle;" parent="1" vertex="1">
                    <mxGeometry x="1195" y="525" width="5" height="5" as="geometry"/>
                </mxCell>
                <mxCell id="197" value="" style="rounded=1;whiteSpace=wrap;html=1;align=left;verticalAlign=middle;spacingLeft=0;labelPosition=right;verticalLabelPosition=middle;" parent="1" vertex="1">
                    <mxGeometry x="1135" y="585" width="10" height="10" as="geometry"/>
                </mxCell>
                <mxCell id="198" value="" style="rounded=1;whiteSpace=wrap;html=1;fillColor=#fff2cc;strokeColor=#d6b656;align=left;verticalAlign=middle;spacingLeft=0;labelPosition=right;verticalLabelPosition=middle;" parent="1" vertex="1">
                    <mxGeometry x="1140" y="585" width="5" height="5" as="geometry"/>
                </mxCell>
                <mxCell id="199" value="" style="rounded=1;whiteSpace=wrap;html=1;fillColor=#ffe6cc;strokeColor=#d79b00;align=left;verticalAlign=middle;spacingLeft=0;labelPosition=right;verticalLabelPosition=middle;" parent="1" vertex="1">
                    <mxGeometry x="1135" y="585" width="5" height="5" as="geometry"/>
                </mxCell>
                <mxCell id="200" value="" style="rounded=1;whiteSpace=wrap;html=1;fillColor=#e1d5e7;strokeColor=#9673a6;align=left;verticalAlign=middle;spacingLeft=0;labelPosition=right;verticalLabelPosition=middle;" parent="1" vertex="1">
                    <mxGeometry x="1135" y="590" width="5" height="5" as="geometry"/>
                </mxCell>
                <mxCell id="201" value="" style="rounded=1;whiteSpace=wrap;html=1;align=left;verticalAlign=middle;spacingLeft=0;labelPosition=right;verticalLabelPosition=middle;" parent="1" vertex="1">
                    <mxGeometry x="1195" y="585" width="10" height="10" as="geometry"/>
                </mxCell>
                <mxCell id="202" value="" style="rounded=1;whiteSpace=wrap;html=1;fillColor=#fff2cc;strokeColor=#d6b656;align=left;verticalAlign=middle;spacingLeft=0;labelPosition=right;verticalLabelPosition=middle;" parent="1" vertex="1">
                    <mxGeometry x="1200" y="585" width="5" height="5" as="geometry"/>
                </mxCell>
                <mxCell id="203" value="" style="rounded=1;whiteSpace=wrap;html=1;fillColor=#ffe6cc;strokeColor=#d79b00;align=left;verticalAlign=middle;spacingLeft=0;labelPosition=right;verticalLabelPosition=middle;" parent="1" vertex="1">
                    <mxGeometry x="1195" y="585" width="5" height="5" as="geometry"/>
                </mxCell>
                <mxCell id="204" value="" style="rounded=1;whiteSpace=wrap;html=1;fillColor=#e1d5e7;strokeColor=#9673a6;align=left;verticalAlign=middle;spacingLeft=0;labelPosition=right;verticalLabelPosition=middle;" parent="1" vertex="1">
                    <mxGeometry x="1195" y="590" width="5" height="5" as="geometry"/>
                </mxCell>
                <mxCell id="205" value="" style="rounded=1;whiteSpace=wrap;html=1;align=left;verticalAlign=middle;spacingLeft=0;labelPosition=right;verticalLabelPosition=middle;" parent="1" vertex="1">
                    <mxGeometry x="1135" y="645" width="10" height="10" as="geometry"/>
                </mxCell>
                <mxCell id="207" value="" style="rounded=1;whiteSpace=wrap;html=1;fillColor=#ffe6cc;strokeColor=#d79b00;align=left;verticalAlign=middle;spacingLeft=0;labelPosition=right;verticalLabelPosition=middle;" parent="1" vertex="1">
                    <mxGeometry x="1135" y="645" width="5" height="5" as="geometry"/>
                </mxCell>
                <mxCell id="209" value="" style="rounded=1;whiteSpace=wrap;html=1;align=left;verticalAlign=middle;spacingLeft=0;labelPosition=right;verticalLabelPosition=middle;" parent="1" vertex="1">
                    <mxGeometry x="1135" y="525" width="10" height="10" as="geometry"/>
                </mxCell>
                <mxCell id="210" value="" style="rounded=1;whiteSpace=wrap;html=1;fillColor=#fff2cc;strokeColor=#d6b656;align=left;verticalAlign=middle;spacingLeft=0;labelPosition=right;verticalLabelPosition=middle;" parent="1" vertex="1">
                    <mxGeometry x="1140" y="525" width="5" height="5" as="geometry"/>
                </mxCell>
                <mxCell id="211" value="" style="rounded=1;whiteSpace=wrap;html=1;fillColor=#ffe6cc;strokeColor=#d79b00;align=left;verticalAlign=middle;spacingLeft=0;labelPosition=right;verticalLabelPosition=middle;" parent="1" vertex="1">
                    <mxGeometry x="1135" y="525" width="5" height="5" as="geometry"/>
                </mxCell>
                <mxCell id="212" value="" style="rounded=1;whiteSpace=wrap;html=1;fillColor=#e1d5e7;strokeColor=#9673a6;align=left;verticalAlign=middle;spacingLeft=0;labelPosition=right;verticalLabelPosition=middle;" parent="1" vertex="1">
                    <mxGeometry x="1135" y="530" width="5" height="5" as="geometry"/>
                </mxCell>
                <mxCell id="55" value="Does the authors of open pull requests have previously authored commits that decreased the maintainability index?" style="rounded=1;align=center;perimeterSpacing=3;strokeWidth=1;spacingLeft=0;spacingBottom=0;spacingTop=0;spacingRight=0;spacing=5;fontSize=4;fillColor=#f8cecc;strokeColor=#b85450;labelPosition=center;verticalLabelPosition=middle;verticalAlign=middle;whiteSpace=wrap;" parent="1" vertex="1">
                    <mxGeometry x="827" y="405" width="40" height="50" as="geometry"/>
                </mxCell>
                <mxCell id="67" value="How many iterations of review suggestions and edits are on average necessary in order to merge a pull request?" style="rounded=1;align=center;perimeterSpacing=3;strokeWidth=1;spacingLeft=0;spacingBottom=0;spacingTop=0;spacingRight=0;spacing=5;fontSize=4;fillColor=#f8cecc;strokeColor=#b85450;labelPosition=center;verticalLabelPosition=middle;verticalAlign=middle;whiteSpace=wrap;textShadow=1;" parent="1" vertex="1">
                    <mxGeometry x="887" y="405" width="40" height="50" as="geometry"/>
                </mxCell>
                <mxCell id="69" value="If a pull request is behind schedule, is the reviewer or contributor deviating more from the average or planned schdule" style="rounded=1;align=center;perimeterSpacing=3;strokeWidth=1;spacingLeft=0;spacingBottom=0;spacingTop=0;spacingRight=0;spacing=5;fontSize=4;fillColor=#f8cecc;strokeColor=#b85450;labelPosition=center;verticalLabelPosition=middle;verticalAlign=middle;whiteSpace=wrap;textShadow=1;" parent="1" vertex="1">
                    <mxGeometry x="827" y="465" width="40" height="50" as="geometry"/>
                </mxCell>
                <mxCell id="73" value="How many users work on one pull request" style="rounded=1;align=center;perimeterSpacing=3;strokeWidth=1;spacingLeft=0;spacingBottom=0;spacingTop=0;spacingRight=0;spacing=5;fontSize=4;fillColor=#f8cecc;strokeColor=#b85450;labelPosition=center;verticalLabelPosition=middle;verticalAlign=middle;whiteSpace=wrap;html=1;textShadow=1;" parent="1" vertex="1">
                    <mxGeometry x="827" y="525" width="40" height="50" as="geometry"/>
                </mxCell>
                <mxCell id="79" value="Can pull requests with denied reviews still be saved and merged later on, is then the code quality below average?" style="rounded=1;align=center;perimeterSpacing=3;strokeWidth=1;spacingLeft=0;spacingBottom=0;spacingTop=0;spacingRight=0;spacing=5;fontSize=4;fillColor=#f8cecc;strokeColor=#b85450;labelPosition=center;verticalLabelPosition=middle;verticalAlign=middle;whiteSpace=wrap;html=1;textShadow=1;" parent="1" vertex="1">
                    <mxGeometry x="887" y="525" width="40" height="50" as="geometry"/>
                </mxCell>
                <mxCell id="82" value="Do modified file types correlate with the different tags added for the pull request" style="rounded=1;align=center;perimeterSpacing=3;strokeWidth=1;spacingLeft=0;spacingBottom=0;spacingTop=0;spacingRight=0;spacing=5;fontSize=4;fillColor=#f8cecc;strokeColor=#b85450;labelPosition=center;verticalLabelPosition=middle;verticalAlign=middle;whiteSpace=wrap;html=1;textShadow=1;" parent="1" vertex="1">
                    <mxGeometry x="827" y="585" width="40" height="50" as="geometry"/>
                </mxCell>
                <mxCell id="83" value="Which suggestions made during review are not incorporated?" style="rounded=1;align=center;perimeterSpacing=3;strokeWidth=1;spacingLeft=0;spacingBottom=0;spacingTop=0;spacingRight=0;spacing=5;fontSize=4;fillColor=#f8cecc;strokeColor=#b85450;labelPosition=center;verticalLabelPosition=middle;verticalAlign=middle;whiteSpace=wrap;textShadow=1;" parent="1" vertex="1">
                    <mxGeometry x="887" y="585" width="40" height="50" as="geometry"/>
                </mxCell>
                <mxCell id="84" value="After initial commits, how long does it usually take until the first code review?" style="rounded=1;align=center;perimeterSpacing=3;strokeWidth=1;spacingLeft=0;spacingBottom=0;spacingTop=0;spacingRight=0;spacing=5;fontSize=4;fillColor=#f8cecc;strokeColor=#b85450;labelPosition=center;verticalLabelPosition=middle;verticalAlign=middle;whiteSpace=wrap;textShadow=1;" parent="1" vertex="1">
                    <mxGeometry x="887" y="465" width="40" height="50" as="geometry"/>
                </mxCell>
                <mxCell id="85" value="How are review suggestions incorporated, with or without additional changes?" style="rounded=1;align=center;perimeterSpacing=3;strokeWidth=1;spacingLeft=0;spacingBottom=0;spacingTop=0;spacingRight=0;spacing=5;fontSize=4;fillColor=#f8cecc;strokeColor=#b85450;labelPosition=center;verticalLabelPosition=middle;verticalAlign=middle;whiteSpace=wrap;textShadow=1;" parent="1" vertex="1">
                    <mxGeometry x="887" y="645" width="40" height="50" as="geometry"/>
                </mxCell>
                <mxCell id="91" value="Which types of user can merge their pull requests themselves and have they made changes to the code, were these changes reviewed?" style="rounded=1;align=center;perimeterSpacing=3;strokeWidth=1;spacingLeft=0;spacingBottom=0;spacingTop=0;spacingRight=0;spacing=5;fontSize=4;fillColor=#f8cecc;strokeColor=#b85450;labelPosition=center;verticalLabelPosition=middle;verticalAlign=middle;whiteSpace=wrap;textShadow=1;" parent="1" vertex="1">
                    <mxGeometry x="827" y="645" width="40" height="50" as="geometry"/>
                </mxCell>
                <mxCell id="225" value="" style="rounded=1;whiteSpace=wrap;html=1;align=left;verticalAlign=middle;spacingLeft=0;labelPosition=right;verticalLabelPosition=middle;" parent="1" vertex="1">
                    <mxGeometry x="862" y="450" width="10" height="10" as="geometry"/>
                </mxCell>
                <mxCell id="226" value="" style="rounded=1;whiteSpace=wrap;html=1;fillColor=#fff2cc;strokeColor=#d6b656;align=left;verticalAlign=middle;spacingLeft=0;labelPosition=right;verticalLabelPosition=middle;" parent="1" vertex="1">
                    <mxGeometry x="867" y="450" width="5" height="5" as="geometry"/>
                </mxCell>
                <mxCell id="227" value="" style="rounded=1;whiteSpace=wrap;html=1;fillColor=#ffe6cc;strokeColor=#d79b00;align=left;verticalAlign=middle;spacingLeft=0;labelPosition=right;verticalLabelPosition=middle;" parent="1" vertex="1">
                    <mxGeometry x="862" y="450" width="5" height="5" as="geometry"/>
                </mxCell>
                <mxCell id="233" value="" style="rounded=1;whiteSpace=wrap;html=1;align=left;verticalAlign=middle;spacingLeft=0;labelPosition=right;verticalLabelPosition=middle;" parent="1" vertex="1">
                    <mxGeometry x="922" y="450" width="10" height="10" as="geometry"/>
                </mxCell>
                <mxCell id="234" value="" style="rounded=1;whiteSpace=wrap;html=1;fillColor=#fff2cc;strokeColor=#d6b656;align=left;verticalAlign=middle;spacingLeft=0;labelPosition=right;verticalLabelPosition=middle;" parent="1" vertex="1">
                    <mxGeometry x="927" y="450" width="5" height="5" as="geometry"/>
                </mxCell>
                <mxCell id="235" value="" style="rounded=1;whiteSpace=wrap;html=1;fillColor=#ffe6cc;strokeColor=#d79b00;align=left;verticalAlign=middle;spacingLeft=0;labelPosition=right;verticalLabelPosition=middle;" parent="1" vertex="1">
                    <mxGeometry x="922" y="450" width="5" height="5" as="geometry"/>
                </mxCell>
                <mxCell id="236" value="" style="rounded=1;whiteSpace=wrap;html=1;fillColor=#e1d5e7;strokeColor=#9673a6;align=left;verticalAlign=middle;spacingLeft=0;labelPosition=right;verticalLabelPosition=middle;" parent="1" vertex="1">
                    <mxGeometry x="922" y="455" width="5" height="5" as="geometry"/>
                </mxCell>
                <mxCell id="237" value="" style="rounded=1;whiteSpace=wrap;html=1;align=left;verticalAlign=middle;spacingLeft=0;labelPosition=right;verticalLabelPosition=middle;" parent="1" vertex="1">
                    <mxGeometry x="862" y="510" width="10" height="10" as="geometry"/>
                </mxCell>
                <mxCell id="238" value="" style="rounded=1;whiteSpace=wrap;html=1;fillColor=#fff2cc;strokeColor=#d6b656;align=left;verticalAlign=middle;spacingLeft=0;labelPosition=right;verticalLabelPosition=middle;" parent="1" vertex="1">
                    <mxGeometry x="867" y="510" width="5" height="5" as="geometry"/>
                </mxCell>
                <mxCell id="239" value="" style="rounded=1;whiteSpace=wrap;html=1;fillColor=#ffe6cc;strokeColor=#d79b00;align=left;verticalAlign=middle;spacingLeft=0;labelPosition=right;verticalLabelPosition=middle;" parent="1" vertex="1">
                    <mxGeometry x="862" y="510" width="5" height="5" as="geometry"/>
                </mxCell>
                <mxCell id="240" value="" style="rounded=1;whiteSpace=wrap;html=1;fillColor=#e1d5e7;strokeColor=#9673a6;align=left;verticalAlign=middle;spacingLeft=0;labelPosition=right;verticalLabelPosition=middle;" parent="1" vertex="1">
                    <mxGeometry x="862" y="515" width="5" height="5" as="geometry"/>
                </mxCell>
                <mxCell id="241" value="" style="rounded=1;whiteSpace=wrap;html=1;align=left;verticalAlign=middle;spacingLeft=0;labelPosition=right;verticalLabelPosition=middle;" parent="1" vertex="1">
                    <mxGeometry x="922" y="510" width="10" height="10" as="geometry"/>
                </mxCell>
                <mxCell id="242" value="" style="rounded=1;whiteSpace=wrap;html=1;fillColor=#fff2cc;strokeColor=#d6b656;align=left;verticalAlign=middle;spacingLeft=0;labelPosition=right;verticalLabelPosition=middle;" parent="1" vertex="1">
                    <mxGeometry x="927" y="510" width="5" height="5" as="geometry"/>
                </mxCell>
                <mxCell id="244" value="" style="rounded=1;whiteSpace=wrap;html=1;fillColor=#e1d5e7;strokeColor=#9673a6;align=left;verticalAlign=middle;spacingLeft=0;labelPosition=right;verticalLabelPosition=middle;" parent="1" vertex="1">
                    <mxGeometry x="922" y="515" width="5" height="5" as="geometry"/>
                </mxCell>
                <mxCell id="246" value="" style="rounded=1;whiteSpace=wrap;html=1;align=left;verticalAlign=middle;spacingLeft=0;labelPosition=right;verticalLabelPosition=middle;" parent="1" vertex="1">
                    <mxGeometry x="862" y="570" width="10" height="10" as="geometry"/>
                </mxCell>
                <mxCell id="248" value="" style="rounded=1;whiteSpace=wrap;html=1;fillColor=#ffe6cc;strokeColor=#d79b00;align=left;verticalAlign=middle;spacingLeft=0;labelPosition=right;verticalLabelPosition=middle;" parent="1" vertex="1">
                    <mxGeometry x="862" y="570" width="5" height="5" as="geometry"/>
                </mxCell>
                <mxCell id="250" value="" style="rounded=1;whiteSpace=wrap;html=1;align=left;verticalAlign=middle;spacingLeft=0;labelPosition=right;verticalLabelPosition=middle;" parent="1" vertex="1">
                    <mxGeometry x="922" y="570" width="10" height="10" as="geometry"/>
                </mxCell>
                <mxCell id="251" value="" style="rounded=1;whiteSpace=wrap;html=1;fillColor=#fff2cc;strokeColor=#d6b656;align=left;verticalAlign=middle;spacingLeft=0;labelPosition=right;verticalLabelPosition=middle;" parent="1" vertex="1">
                    <mxGeometry x="927" y="570" width="5" height="5" as="geometry"/>
                </mxCell>
                <mxCell id="252" value="" style="rounded=1;whiteSpace=wrap;html=1;fillColor=#ffe6cc;strokeColor=#d79b00;align=left;verticalAlign=middle;spacingLeft=0;labelPosition=right;verticalLabelPosition=middle;" parent="1" vertex="1">
                    <mxGeometry x="922" y="570" width="5" height="5" as="geometry"/>
                </mxCell>
                <mxCell id="253" value="" style="rounded=1;whiteSpace=wrap;html=1;fillColor=#e1d5e7;strokeColor=#9673a6;align=left;verticalAlign=middle;spacingLeft=0;labelPosition=right;verticalLabelPosition=middle;" parent="1" vertex="1">
                    <mxGeometry x="922" y="575" width="5" height="5" as="geometry"/>
                </mxCell>
                <mxCell id="254" value="" style="rounded=1;whiteSpace=wrap;html=1;align=left;verticalAlign=middle;spacingLeft=0;labelPosition=right;verticalLabelPosition=middle;" parent="1" vertex="1">
                    <mxGeometry x="862" y="630" width="10" height="10" as="geometry"/>
                </mxCell>
                <mxCell id="255" value="" style="rounded=1;whiteSpace=wrap;html=1;fillColor=#fff2cc;strokeColor=#d6b656;align=left;verticalAlign=middle;spacingLeft=0;labelPosition=right;verticalLabelPosition=middle;" parent="1" vertex="1">
                    <mxGeometry x="867" y="630" width="5" height="5" as="geometry"/>
                </mxCell>
                <mxCell id="256" value="" style="rounded=1;whiteSpace=wrap;html=1;fillColor=#ffe6cc;strokeColor=#d79b00;align=left;verticalAlign=middle;spacingLeft=0;labelPosition=right;verticalLabelPosition=middle;" parent="1" vertex="1">
                    <mxGeometry x="862" y="630" width="5" height="5" as="geometry"/>
                </mxCell>
                <mxCell id="257" value="" style="rounded=1;whiteSpace=wrap;html=1;fillColor=#e1d5e7;strokeColor=#9673a6;align=left;verticalAlign=middle;spacingLeft=0;labelPosition=right;verticalLabelPosition=middle;" parent="1" vertex="1">
                    <mxGeometry x="862" y="635" width="5" height="5" as="geometry"/>
                </mxCell>
                <mxCell id="258" value="" style="rounded=1;whiteSpace=wrap;html=1;align=left;verticalAlign=middle;spacingLeft=0;labelPosition=right;verticalLabelPosition=middle;" parent="1" vertex="1">
                    <mxGeometry x="922" y="630" width="10" height="10" as="geometry"/>
                </mxCell>
                <mxCell id="259" value="" style="rounded=1;whiteSpace=wrap;html=1;fillColor=#fff2cc;strokeColor=#d6b656;align=left;verticalAlign=middle;spacingLeft=0;labelPosition=right;verticalLabelPosition=middle;" parent="1" vertex="1">
                    <mxGeometry x="927" y="630" width="5" height="5" as="geometry"/>
                </mxCell>
                <mxCell id="261" value="" style="rounded=1;whiteSpace=wrap;html=1;fillColor=#e1d5e7;strokeColor=#9673a6;align=left;verticalAlign=middle;spacingLeft=0;labelPosition=right;verticalLabelPosition=middle;" parent="1" vertex="1">
                    <mxGeometry x="922" y="635" width="5" height="5" as="geometry"/>
                </mxCell>
                <mxCell id="262" value="" style="rounded=1;whiteSpace=wrap;html=1;align=left;verticalAlign=middle;spacingLeft=0;labelPosition=right;verticalLabelPosition=middle;" parent="1" vertex="1">
                    <mxGeometry x="922" y="690" width="10" height="10" as="geometry"/>
                </mxCell>
                <mxCell id="263" value="" style="rounded=1;whiteSpace=wrap;html=1;fillColor=#fff2cc;strokeColor=#d6b656;align=left;verticalAlign=middle;spacingLeft=0;labelPosition=right;verticalLabelPosition=middle;" parent="1" vertex="1">
                    <mxGeometry x="927" y="690" width="5" height="5" as="geometry"/>
                </mxCell>
                <mxCell id="265" value="" style="rounded=1;whiteSpace=wrap;html=1;fillColor=#e1d5e7;strokeColor=#9673a6;align=left;verticalAlign=middle;spacingLeft=0;labelPosition=right;verticalLabelPosition=middle;" parent="1" vertex="1">
                    <mxGeometry x="922" y="695" width="5" height="5" as="geometry"/>
                </mxCell>
            </root>
        </mxGraphModel>
    </diagram>
    <diagram id="eKUK3vrR_9GYCevPWeM6" name="Overview-Diagram">
        <mxGraphModel dx="758" dy="644" grid="1" gridSize="10" guides="1" tooltips="1" connect="1" arrows="1" fold="1" page="1" pageScale="1" pageWidth="1169" pageHeight="827" math="0" shadow="0">
            <root>
                <mxCell id="0"/>
                <mxCell id="1" parent="0"/>
                <mxCell id="GslqEcg6We2W02iY_cbz-1" value="Committer" style="shape=actor;whiteSpace=wrap;html=1;verticalAlign=top;labelPosition=center;verticalLabelPosition=bottom;align=center;" parent="1" vertex="1">
                    <mxGeometry x="160" y="300" width="40" height="60" as="geometry"/>
                </mxCell>
                <mxCell id="GslqEcg6We2W02iY_cbz-2" value="Author" style="shape=actor;whiteSpace=wrap;html=1;verticalAlign=top;labelPosition=center;verticalLabelPosition=bottom;align=center;" parent="1" vertex="1">
                    <mxGeometry x="230" y="300" width="40" height="60" as="geometry"/>
                </mxCell>
                <mxCell id="GslqEcg6We2W02iY_cbz-3" value="Reviewer" style="shape=actor;whiteSpace=wrap;html=1;verticalAlign=top;labelPosition=center;verticalLabelPosition=bottom;align=center;" parent="1" vertex="1">
                    <mxGeometry x="300" y="300" width="40" height="60" as="geometry"/>
                </mxCell>
                <mxCell id="GslqEcg6We2W02iY_cbz-5" value="Contributor" style="shape=actor;whiteSpace=wrap;html=1;verticalAlign=top;labelPosition=center;verticalLabelPosition=bottom;align=center;" parent="1" vertex="1">
                    <mxGeometry x="230" y="190" width="40" height="60" as="geometry"/>
                </mxCell>
                <mxCell id="GslqEcg6We2W02iY_cbz-6" value="User" style="shape=actor;whiteSpace=wrap;html=1;verticalAlign=top;labelPosition=center;verticalLabelPosition=bottom;align=center;" parent="1" vertex="1">
                    <mxGeometry x="230" y="80" width="40" height="60" as="geometry"/>
                </mxCell>
                <mxCell id="GslqEcg6We2W02iY_cbz-7" value="" style="rounded=1;whiteSpace=wrap;html=1;" parent="1" vertex="1">
                    <mxGeometry x="420" y="150" width="120" height="60" as="geometry"/>
                </mxCell>
                <mxCell id="GslqEcg6We2W02iY_cbz-8" value="Issue" style="rounded=1;whiteSpace=wrap;html=1;" parent="1" vertex="1">
                    <mxGeometry x="420" y="150" width="120" height="60" as="geometry"/>
                </mxCell>
                <mxCell id="GslqEcg6We2W02iY_cbz-9" value="Pull Request" style="rounded=1;whiteSpace=wrap;html=1;" parent="1" vertex="1">
                    <mxGeometry x="560" y="150" width="120" height="60" as="geometry"/>
                </mxCell>
                <mxCell id="GslqEcg6We2W02iY_cbz-10" value="Commit" style="rounded=1;whiteSpace=wrap;html=1;" parent="1" vertex="1">
                    <mxGeometry x="560" y="230" width="120" height="60" as="geometry"/>
                </mxCell>
                <mxCell id="GslqEcg6We2W02iY_cbz-11" value="Discussion" style="rounded=1;whiteSpace=wrap;html=1;" parent="1" vertex="1">
                    <mxGeometry x="420" y="230" width="120" height="60" as="geometry"/>
                </mxCell>
                <mxCell id="GslqEcg6We2W02iY_cbz-13" value="Comment" style="rounded=1;whiteSpace=wrap;html=1;" parent="1" vertex="1">
                    <mxGeometry x="770" y="150" width="120" height="60" as="geometry"/>
                </mxCell>
                <mxCell id="GslqEcg6We2W02iY_cbz-14" value="Review" style="rounded=1;whiteSpace=wrap;html=1;" parent="1" vertex="1">
                    <mxGeometry x="770" y="230" width="120" height="60" as="geometry"/>
                </mxCell>
                <mxCell id="GslqEcg6We2W02iY_cbz-15" value="Label" style="rounded=1;whiteSpace=wrap;html=1;" parent="1" vertex="1">
                    <mxGeometry x="910" y="150" width="120" height="60" as="geometry"/>
                </mxCell>
                <mxCell id="GslqEcg6We2W02iY_cbz-16" value="File" style="rounded=1;whiteSpace=wrap;html=1;" parent="1" vertex="1">
                    <mxGeometry x="910" y="230" width="120" height="60" as="geometry"/>
                </mxCell>
                <mxCell id="GslqEcg6We2W02iY_cbz-17" value="Method?" style="rounded=1;whiteSpace=wrap;html=1;" parent="1" vertex="1">
                    <mxGeometry x="850" y="310" width="120" height="60" as="geometry"/>
                </mxCell>
            </root>
        </mxGraphModel>
    </diagram>
</mxfile>